<svg height="512" viewBox="0 0 64 64" width="512" xmlns="http://www.w3.org/2000/svg"><g id="flat"><path d="m49 38 6 8-2 10 3 5h-15l1-3 5-1a10.322 10.322 0 0 1 -2.6-4.54l-11.86-.71-1.54 9.25h-10v-.97a3.452 3.452 0 0 1 2-3.03l3-1-.54-4.82-2.46-.18-10-8 .7-10.44 14.63-3.11a43.784 43.784 0 0 1 3.77 2.82l1.9 1.73 4.568 6.7z" fill="#e0dfc3"/><path d="m20 10-9 18s3 8 9 8 9-8 9-8z" fill="#f4f4e6"/><path d="m23 28a3.427 3.427 0 0 1 -3 3 3.427 3.427 0 0 1 -3-3c0-1.105 1.343-1 3-1s3-.1 3 1z" fill="#301a12"/><path d="m20 15s0 7-9 13l-1-6v-6l6-6h4z" fill="#d3843d"/><path d="m20 15s0 7 9 13l1-6v-6l-6-6h-4z" fill="#c17638"/><circle cx="15" cy="20" fill="#301a12" r="1"/><path d="m16.105 17.447-.612-1.224-2.177.725-.632-1.9 3-1a1 1 0 0 1 1.211.5l1 2z" fill="#ad6327"/><circle cx="25" cy="20" fill="#301a12" r="1"/><path d="m23.9 17.447-1.79-.894 1-2a1 1 0 0 1 1.211-.5l3 1-.632 1.9-2.177-.725z" fill="#ad6327"/><path d="m16 10s-1-5.583-8-7c0 0-3.583 5.833 2 13z" fill="#ad6327"/><path d="m24 10s1-5.583 8-7c0 0 3.583 5.833-2 13z" fill="#ad6327"/><path d="m13 43-9 4-1.208 4.227a2.661 2.661 0 0 0 2.036 3.339 2.66 2.66 0 0 0 2.992-1.62l1.18-2.946 10.763-2.392z" fill="#f4f4e6"/><path d="m55 46s5 2 6-2-2-11-7-10v3l-5 1z" fill="#ad6327"/><g fill="#d3843d"><rect height="5" rx="1" transform="matrix(.8 -.6 .6 .8 -12.3 41.1)" width="1.999" x="54.5" y="36.5"/><path d="m53 56a23.419 23.419 0 0 0 -3-2c-4-2-2-5-4-6s-6-1-9-1-5-2-7 1-6-5-2-9a22.957 22.957 0 0 0 4.1-6.73c.66.55 1.3 1.13 1.9 1.73 4 4 15 4 15 4l6 8c1.77 6.21-1.31 9.38-2 10z"/><path d="m20 45c-1-3-1-5-3-6a25.715 25.715 0 0 0 -3.644-1.343l-.356 5.343 6.684 5.348a5.235 5.235 0 0 0 .316-3.348z"/></g></g></svg>