<svg id="Capa_1" enable-background="new 0 0 512 512" height="512" viewBox="0 0 512 512" width="512" xmlns="http://www.w3.org/2000/svg"><g><path d="m35.633 233.553c-13.803 0-27.129-13.012-31.443-22.404-6.99-15.211-5.137-34.929 4.836-51.453 9.744-16.125 25.157-27.113 35.904-33.977 5.24-3.346 10.635-6.498 15.852-9.546 8.185-4.781 15.915-9.298 23.251-14.576 8.672-6.235 15.573-12.88 20.514-19.751 2.454-3.414 7.21-4.193 10.624-1.737 3.413 2.454 4.191 7.211 1.737 10.623-5.904 8.212-13.974 16.025-23.985 23.223-7.92 5.699-16.329 10.612-24.46 15.363-5.089 2.973-10.352 6.047-15.338 9.232-15.034 9.601-24.906 18.821-31.066 29.015-7.403 12.266-8.949 26.532-4.034 37.228 2.714 5.911 11.74 13.535 17.608 13.535 4.204 0 7.612 3.408 7.612 7.612 0 4.205-3.408 7.613-7.612 7.613z" fill="#766d78"/><path d="m333.479 486.639c1.283 4.102-1.775 8.276-6.077 8.276h-35.122c-4.344 0-8.077-3.071-8.898-7.331-3.545-18.259-12.705-67.598-17.511-113.477-52.484 5.385-85.952 26.779-127.214 10.76-15.703 27.389-44.891 34.416-44.891 34.416l.861 43.829 10.172 24.944c1.704 4.186-1.379 8.764-5.891 8.764h-31.542c-3.807 0-7.193-2.379-8.518-5.955-7.503-20.291-18.071-71.685-20.38-83.124-.284-1.407.038-2.856.89-4.01 4.499-6.09 18.529-27.769 15.072-57.266-4.102-35.014-54.346-119.692 0-170.399 70.785-66.052 209.495-61.014 262.779-8.593l36.098 142.738-27.496 66.958v85.088z" fill="#a29aa5"/><g fill="#8c818f"><path d="m325.811 462.257v-85.088l27.496-66.958-13.787-54.517-7.209 54.517-27.494 66.957v85.09l7.668 24.381c1.283 4.102-1.778 8.277-6.079 8.277h20.997c4.302 0 7.36-4.175 6.077-8.276z"/><path d="m263.62 347.802c.536 8.467 1.304 17.312 2.251 26.305-52.484 5.385-85.952 26.779-127.214 10.76 3.986-6.963 7.11-15.251 8.646-25.064 37.433 11.233 69.481-5.88 116.317-12.001z"/><path d="m129.181 297.08c-6.631 1.036-10.51 7.609-8.697 14.072 21.627 77.085-31.636 90.73-46.023 92.986-1.993.313-3.443 2.049-3.413 4.067l.806 54.911 10.174 24.94c1.708 4.186-1.372 8.766-5.893 8.766h22.773c4.521 0 7.599-4.578 5.891-8.764l-10.172-24.944-.861-43.829s78.053-18.788 47.525-114.673c-1.63-5.119-6.712-8.376-12.11-7.532z"/></g><g><g fill="#8c818f"><path d="m267.502 219.356-65.152 52.781s36.454 37.129 67.867-15.288z"/><path d="m402.333 219.356 65.152 52.781s-36.454 37.129-67.867-15.288z"/></g><path d="m362.642 154.641h-55.448c-41.002 15.481-62.15 41.988-57.159 79.951 6.825 51.914 35.625 80.226 72.851 104.217h24.064c37.226-23.991 66.026-52.303 72.851-104.217 4.99-37.962-16.157-64.47-57.159-79.951z" fill="#b5adb7"/><g fill="#ffeee8"><path d="m308.519 289.255c-8.134 6.548-16.252 34.542-8.968 42.048 13.754 14.172 56.978 14.172 70.732 0 7.285-7.506-.834-35.5-8.968-42.048-12.503-10.066-40.292-10.066-52.796 0z"/><path d="m330.588 172.762c73.07 0 85.082 53.178 138.954 53.178 34.829 0 49.722-28.244 39.077-51.748-5.452-12.039-14.232-16.468-24.114-20.913-1.849-.832-3.631 1.259-2.528 2.961 1.109 1.711 2.093 3.525 2.883 5.574 8.348 21.669-7.311 56.526-61.716 2.557-11.487-11.395-22.806-23.51-36.232-30.934-16.557-9.155-39.339-10.215-51.995 8.619-12.655-18.834-35.438-17.774-51.995-8.619-13.426 7.423-24.745 19.538-36.232 30.934-54.405 53.969-70.064 19.112-61.716-2.557.79-2.049 1.774-3.863 2.883-5.574 1.103-1.702-.679-3.793-2.528-2.961-9.882 4.445-18.661 8.875-24.114 20.913-10.645 23.504 4.248 51.748 39.077 51.748 53.873 0 57.226-53.178 130.296-53.178z"/></g></g><path d="m137.79 22.823c-3.53-2.701-8.88-6.18-14.326-7.412-2.963-.672-6.075.136-8.325 2.159-2.235 2.009-3.359 4.993-3.008 7.984.442 3.766-.061 6.636-1.682 9.596-1.716 3.132-4.354 6.205-7.147 9.458-5.64 6.567-12.032 14.011-12.044 24.107-.012 10.229 7.404 19.801 17.251 22.267 2.538.635 5.225.971 7.976.971 11.802 0 24.77-6.185 32.12-21.43 6.912-14.335 6.248-34.644-10.815-47.7z" fill="#b1abb4"/><g fill="#766d78"><path d="m381.808 249.59c-4.204 0-7.612-3.408-7.612-7.612v-3.985c0-4.205 3.408-7.612 7.612-7.612s7.612 3.408 7.612 7.612v3.985c0 4.204-3.408 7.612-7.612 7.612z"/><path d="m292.337 249.59c-4.204 0-7.612-3.408-7.612-7.612v-3.985c0-4.205 3.408-7.612 7.612-7.612s7.612 3.408 7.612 7.612v3.985c.001 4.204-3.407 7.612-7.612 7.612z"/></g></g></svg>