<svg id="Capa_1" enable-background="new 0 0 512 512" height="512" viewBox="0 0 512 512" width="512" xmlns="http://www.w3.org/2000/svg"><path d="m221.53 399.216v21.562c0 14.024 11.474 25.499 25.499 25.499h4.53c14.024 0 25.499-11.474 25.499-25.499v-9.228c-19.516-1.294-38.184-5.559-55.528-12.334z" fill="#d88a55"/><path d="m241.53 420.779v-15.037c-6.836-1.808-13.51-3.99-20-6.525v21.562c0 14.024 11.474 25.499 25.499 25.499h4.53c2.694 0 5.292-.427 7.735-1.21-10.273-3.297-17.764-12.959-17.764-24.289z" fill="#c57a44"/><path d="m309.721 410.916v9.863c0 14.024 11.474 25.499 25.499 25.499h4.53c14.024 0 25.499-11.474 25.499-25.499v-24.626c-17.236 7.609-35.914 12.689-55.528 14.763z" fill="#d88a55"/><path d="m329.721 420.779v-13.075c-6.541 1.418-13.214 2.494-20 3.212v9.863c0 14.024 11.474 25.499 25.499 25.499h4.53c2.694 0 5.292-.427 7.735-1.21-10.273-3.297-17.764-12.959-17.764-24.289z" fill="#c57a44"/><path d="m111.59 199.34c3.988-18.205 10.87-35.377 20.188-51.027-8.679-.184-16.852-2.413-24.055-6.237-3.853 2.507-7.477 5.8-10.589 9.822-11.593 14.98-11.739 34.284-.326 43.118 4.188 3.24 9.351 4.614 14.782 4.324z" fill="#fb2b3a"/><path d="m470.174 212.502c-.492-3.57-4.47-5.492-7.546-3.614-12.545 7.657-26.126 13.87-40.49 18.408-10.035 59.407-61.721 104.659-123.983 104.659-65.818 0-119.825-50.564-125.297-114.965-.494-5.812 4.142-10.788 9.975-10.788h81.392c-39.584-25.683-68.155-65.986-77.462-112.911.009.399.03.795.03 1.197 0 29.743-24.112 53.855-53.855 53.855-.389 0-.773-.021-1.16-.029-15.367 25.808-24.159 55.739-24.159 87.656 0 97.208 81.52 176.01 182.08 176.01s182.08-78.803 182.08-176.01c-.001-7.957-.547-15.791-1.605-23.468z" fill="#f6a96c"/><path d="m258.498 401.781c-70.454-24.299-120.879-89.36-120.879-165.811 0-31.737 8.699-61.505 23.906-87.214-7.623 4.035-16.193 6.511-25.285 6.996-13.645 24.304-21.122 51.794-21.122 80.218.001 82.639 61.952 151.572 143.38 165.811z" fill="#ea9b58"/><path d="m122.411 41.669c-.055-.768-.093-1.54-.093-2.322 0-5.332 1.317-10.354 3.633-14.77-4.133-3.518-9.485-5.645-15.337-5.645-13.079 0-23.681 10.602-23.681 23.681 0 6.066 2.284 11.597 6.034 15.787 7.616-8.431 17.862-14.436 29.444-16.731z" fill="#fb2b3a"/><path d="m102.747 49.887c-.74-2.293-1.148-4.735-1.148-7.274 0-10.518 6.86-19.43 16.347-22.518-2.31-.752-4.773-1.163-7.333-1.163-13.079 0-23.681 10.602-23.681 23.681 0 6.066 2.284 11.597 6.034 15.787 2.904-3.213 6.187-6.075 9.781-8.513z" fill="#e41f2d"/><path d="m132.938 40.633c17.703 0 33.408 8.543 43.224 21.729 6.065-5.798 9.848-13.962 9.848-23.015 0-17.588-14.258-31.847-31.847-31.847-17.588 0-31.847 14.258-31.847 31.847 0 .782.038 1.554.093 2.322 3.407-.675 6.925-1.036 10.529-1.036z" fill="#fb2b3a"/><path d="m132.938 40.633c3.232 0 6.391.301 9.466.846-.047-.706-.086-1.415-.086-2.133 0-14.094 9.159-26.041 21.847-30.236-3.146-1.04-6.505-1.611-10-1.611-17.588 0-31.847 14.258-31.847 31.847 0 .782.038 1.554.093 2.322 3.405-.674 6.923-1.035 10.527-1.035z" fill="#e41f2d"/><path d="m79.083 94.488c0-6.496 1.151-12.724 3.259-18.49l-40.693 25.078c-2.037 1.255-1.857 4.274.316 5.277l50.055 23.128c-8.059-9.413-12.937-21.63-12.937-34.993z" fill="#fed402"/><circle cx="132.938" cy="94.488" fill="#dd996a" r="53.855"/><path d="m99.083 94.488c0-26.325 18.892-48.224 43.855-52.913-3.242-.609-6.581-.942-10-.942-29.743 0-53.855 24.112-53.855 53.855s24.112 53.855 53.855 53.855c3.419 0 6.758-.333 10-.942-24.963-4.69-43.855-26.589-43.855-52.913z" fill="#d88a55"/><path d="m182.832 206.202c-5.833 0-10.468 4.976-9.975 10.788 5.472 64.401 59.48 114.965 125.297 114.965s119.826-50.564 125.298-114.965c.494-5.812-4.142-10.788-9.975-10.788z" fill="#d88a55"/><path d="m202.857 216.99c-.494-5.812 4.142-10.788 9.975-10.788h-30c-5.833 0-10.468 4.976-9.975 10.788 5.472 64.401 59.48 114.965 125.297 114.965 5.076 0 10.081-.303 15-.887-58.858-6.997-105.247-54.644-110.297-114.078z" fill="#c57a44"/><path d="m256.295 504.5h-32.221c-5.523 0-10-4.477-10-10v-5.041c0-5.523 4.477-10 10-10h32.221c5.523 0 10 4.477 10 10v5.041c0 5.523-4.478 10-10 10z" fill="#fed402"/><path d="m234.074 494.5v-5.041c0-5.523 4.477-10 10-10h-20c-5.523 0-10 4.477-10 10v5.041c0 5.523 4.477 10 10 10h20c-5.523 0-10-4.477-10-10z" fill="#fac600"/><path d="m346.667 504.5h-32.221c-5.523 0-10-4.477-10-10v-5.041c0-5.523 4.477-10 10-10h32.221c5.523 0 10 4.477 10 10v5.041c0 5.523-4.477 10-10 10z" fill="#fed402"/><path d="m324.446 494.5v-5.041c0-5.523 4.477-10 10-10h-20c-5.523 0-10 4.477-10 10v5.041c0 5.523 4.477 10 10 10h20c-5.522 0-10-4.477-10-10z" fill="#fac600"/><path d="m399.313 367.13c-30.892 24.085-69.821 37.35-109.614 37.35-96.264 0-174.58-75.594-174.58-168.511 0-28.424 7.476-55.914 21.122-80.218 22.252-1.186 41.381-14.289 51.138-33.022 2.228 5.933 4.772 11.759 7.633 17.449 1.861 3.701 6.37 5.192 10.07 3.332 3.701-1.861 5.192-6.37 3.332-10.07-6.558-13.041-11.304-26.845-14.175-41.062-.364-10.71-3.476-20.733-8.667-29.379 4.977-6.588 7.939-14.778 7.939-23.653 0-21.695-17.651-39.346-39.347-39.346-12.218 0-23.152 5.598-30.374 14.363-4.005-1.877-8.469-2.931-13.177-2.931-17.193 0-31.181 13.988-31.181 31.181 0 5.637 1.512 10.923 4.141 15.49-2.91 3.938-5.361 8.232-7.273 12.808l-38.586 23.779c-3.299 2.033-5.205 5.698-4.974 9.566s2.561 7.28 6.077 8.904l48.657 22.482c2.353 2.597 4.935 4.98 7.696 7.145-1.384 1.411-2.719 2.904-3.969 4.519-14.106 18.227-13.65 42.29 1.015 53.639 3.127 2.42 6.661 4.108 10.464 5.055-1.684 9.824-2.563 19.84-2.563 29.968 0 75.162 46.93 139.904 113.911 168.241v16.568c0 16.414 12.048 30.063 27.764 32.579v18.601h-17.72c-9.649 0-17.5 7.851-17.5 17.5v5.041c0 9.649 7.851 17.5 17.5 17.5h32.221c9.649 0 17.5-7.851 17.5-17.5v-5.041c0-9.481-7.583-17.207-17-17.475v-18.627c15.716-2.517 27.764-16.165 27.764-32.579v-1.368c1.708.044 3.422.07 5.141.07 4.185 0 8.361-.139 12.522-.408v1.707c0 16.414 12.048 30.063 27.764 32.579v18.601h-15.538c-9.649 0-17.5 7.851-17.5 17.5v5.041c0 9.649 7.851 17.5 17.5 17.5h32.221c9.649 0 17.5-7.851 17.5-17.5v-5.041c0-9.649-7.851-17.5-17.5-17.5h-1.683v-18.601c15.716-2.516 27.764-16.165 27.764-32.579v-19.869c12.689-5.974 24.715-13.317 35.788-21.95 3.267-2.547 3.85-7.259 1.303-10.526-2.547-3.265-7.26-3.849-10.526-1.302zm-346.592-264.068 18.94-11.672c-.051 1.027-.079 2.06-.079 3.099 0 6.493 1.022 12.75 2.9 18.629zm101.443-88.062c13.425 0 24.347 10.922 24.347 24.347 0 4.056-1.004 7.879-2.766 11.245-11.063-10.792-26.167-17.459-42.806-17.459-.782 0-1.556.03-2.331.059 2.733-10.454 12.257-18.192 23.556-18.192zm-43.551 11.432c2.12 0 4.136.431 5.994 1.175-.824 2.629-1.37 5.379-1.623 8.211-7.383 2.264-14.17 5.894-20.084 10.582-.295-1.217-.467-2.481-.467-3.788 0-8.921 7.258-16.18 16.18-16.18zm-24.03 68.056c0-25.56 20.795-46.355 46.355-46.355s46.354 20.795 46.354 46.355-20.794 46.355-46.354 46.355-46.355-20.795-46.355-46.355zm14.815 94.596c-7.987-6.181-7.224-21.108 1.667-32.596 1.673-2.162 3.543-4.058 5.519-5.698 3.613 1.569 7.404 2.797 11.335 3.65-6.015 11.727-10.743 24.074-14.065 36.848-1.639-.465-3.145-1.19-4.456-2.204zm157.396 300.375v5.041c0 1.378-1.122 2.5-2.5 2.5h-32.221c-1.378 0-2.5-1.122-2.5-2.5v-5.041c0-1.378 1.122-2.5 2.5-2.5h32.221c1.379 0 2.5 1.122 2.5 2.5zm10.764-68.68c0 9.924-8.074 17.999-17.999 17.999h-4.53c-9.925 0-17.999-8.074-17.999-17.999v-10.935c12.943 4.243 26.511 7.16 40.528 8.6zm77.109 66.18c1.378 0 2.5 1.122 2.5 2.5v5.041c0 1.378-1.122 2.5-2.5 2.5h-32.221c-1.378 0-2.5-1.122-2.5-2.5v-5.041c0-1.378 1.122-2.5 2.5-2.5zm11.081-66.18c0 9.924-8.074 17.999-17.999 17.999h-4.53c-9.924 0-17.999-8.074-17.999-17.999v-3.261c13.878-1.981 27.477-5.448 40.527-10.301v13.562z"/><path d="m477.603 211.478c-.58-4.203-3.212-7.796-7.042-9.613-3.814-1.809-8.24-1.576-11.84.622-8.843 5.397-18.136 9.958-27.75 13.702.005-4.345-1.615-8.585-4.581-11.814-3.312-3.605-8.019-5.673-12.913-5.673h-56.81c-4.142 0-7.5 3.358-7.5 7.5s3.358 7.5 7.5 7.5h56.81c.968 0 1.585.514 1.867.821.33.359.708.969.635 1.833-2.498 29.4-15.863 56.66-37.633 76.757-21.894 20.211-50.373 31.343-80.191 31.343s-58.297-11.131-80.191-31.343c-21.771-20.098-35.135-47.357-37.633-76.757-.073-.863.305-1.473.635-1.833.282-.307.899-.821 1.867-.821h138.167c4.142 0 7.5-3.358 7.5-7.5s-3.358-7.5-7.5-7.5h-54.666c-14.809-9.908-28.148-22.118-39.487-36.418-2.573-3.245-7.29-3.79-10.537-1.216-3.246 2.574-3.79 7.291-1.216 10.537 7.823 9.866 16.722 18.951 26.454 27.098h-58.716c-4.894 0-9.601 2.068-12.913 5.673-3.292 3.584-4.945 8.414-4.535 13.25 2.816 33.142 17.875 63.865 42.405 86.509 24.673 22.777 56.765 35.321 90.366 35.321 33.6 0 65.692-12.544 90.365-35.321 20.693-19.103 34.646-43.954 40.195-71.157 11.97-4.086 23.536-9.316 34.5-15.707.706 6.184 1.063 12.457 1.063 18.699 0 39.238-14.277 77.444-40.201 107.579-2.701 3.14-2.346 7.875.794 10.577 1.416 1.218 3.156 1.814 4.888 1.814 2.109 0 4.206-.885 5.689-2.609 28.264-32.854 43.83-74.534 43.83-117.361 0-8.189-.563-16.429-1.675-24.492z"/><path d="m118.417 99.718c4.142 0 7.5-3.358 7.5-7.5v-11.521c0-4.142-3.358-7.5-7.5-7.5s-7.5 3.358-7.5 7.5v11.521c0 4.142 3.358 7.5 7.5 7.5z"/></svg>