<svg id="Layer_1" enable-background="new 0 0 512 512" height="512" viewBox="0 0 512 512" width="512" xmlns="http://www.w3.org/2000/svg"><g><path d="m425.907 498.964h-339.814c-1.246-7.682 13.615-370.87 42.562-496.309.645-2.796 4.295-3.601 6.114-1.36 9.076 11.181 30.028 39.236 45.516 77.205.601 1.473 2.225 2.269 3.775 1.823 8.31-2.39 35.106-9.203 71.946-9.653 36.831.45 63.626 7.263 71.935 9.653 1.55.446 3.175-.35 3.775-1.823 15.488-37.969 36.44-66.023 45.516-77.205 1.819-2.241 5.469-1.436 6.114 1.36 28.946 125.439 43.808 488.628 42.561 496.309z" fill="#bc7c63"/><g fill="#aa6a51"><path d="m149.379 78.5c.601 1.473 2.225 2.269 3.775 1.823 4.186-1.204 13.067-3.53 25.556-5.6-15.304-36.049-35.17-62.62-43.942-73.427-1.819-2.241-5.469-1.436-6.114 1.36-1.796 7.785-3.538 16.487-5.226 25.961 8.518 13.355 17.96 30.294 25.951 49.883z"/><path d="m383.346 2.655c-.645-2.796-4.295-3.601-6.114-1.36-2.916 3.593-7.063 8.937-11.856 15.783 25.533 140.09 30.814 474.567 29.627 481.886h30.905c1.246-7.682-13.615-370.87-42.562-496.309z"/></g><path d="m298.475 403.448h-84.95c-24.042 0-43.532-19.49-43.532-43.532v-23.245c0-24.042 19.49-43.532 43.532-43.532h84.95c24.042 0 43.532 19.49 43.532 43.532v23.245c0 24.042-19.49 43.532-43.532 43.532z" fill="#e5c7be"/><path d="m298.475 293.139h-30.905c24.042 0 43.532 19.49 43.532 43.532v23.245c0 24.042-19.49 43.532-43.532 43.532h30.905c24.042 0 43.532-19.49 43.532-43.532v-23.245c0-24.042-19.49-43.532-43.532-43.532z" fill="#d9b3a6"/><g fill="#7c4b37"><path d="m221.021 218.691h-38.434c-9.932 0-17.983-8.051-17.983-17.983v-7.528c0-2.979 2.415-5.394 5.394-5.394h38.434c9.932 0 17.983 8.051 17.983 17.983v7.528c0 2.979-2.415 5.394-5.394 5.394z"/><path d="m290.979 218.691h38.434c9.932 0 17.983-8.051 17.983-17.983v-7.528c0-2.979-2.415-5.394-5.394-5.394h-38.434c-9.932 0-17.983 8.051-17.983 17.983v7.528c0 2.979 2.415 5.394 5.394 5.394z"/></g><path d="m428.377 512h-344.754c-4.366 0-7.905-3.539-7.905-7.905v-33.639c0-4.366 3.539-7.905 7.905-7.905h344.754c4.366 0 7.905 3.539 7.905 7.905v33.639c0 4.366-3.539 7.905-7.905 7.905z" fill="#eb5569"/><path d="m428.377 462.551h-30.905c4.366 0 7.905 3.539 7.905 7.905v33.639c0 4.366-3.539 7.905-7.905 7.905h30.905c4.366 0 7.905-3.539 7.905-7.905v-33.639c0-4.366-3.539-7.905-7.905-7.905z" fill="#e53950"/><path d="m292.399 365.878c-.52-.271-11.537-5.896-28.899-7.251v-23.541c0-4.143-3.357-7.5-7.5-7.5-4.142 0-7.5 3.357-7.5 7.5v23.541c-17.362 1.355-28.379 6.981-28.899 7.251-3.664 1.905-5.083 6.404-3.194 10.076s6.404 5.12 10.084 3.248c.115-.059 11.748-5.869 29.509-5.869 17.641 0 29.234 5.73 29.505 5.867 1.099.565 2.271.834 3.429.834 2.708 0 5.324-1.473 6.66-4.042 1.911-3.675.48-8.203-3.195-10.114z" fill="#7c4b37"/><path d="m314.007 291.026c0 20.576-25.971 44.06-58.007 44.06s-58.007-23.484-58.007-44.06 25.971-30.452 58.007-30.452 58.007 9.876 58.007 30.452z" fill="#87523e"/><path d="m256 260.574c-5.353 0-10.531.282-15.453.838 24.532 2.768 42.554 12.477 42.554 29.615s-18.023 36.28-42.554 42.203c4.922 1.188 10.099 1.857 15.453 1.857 32.036 0 58.007-23.484 58.007-44.06s-25.971-30.453-58.007-30.453z" fill="#7c4b37"/></g></svg>