<svg id="Capa_1" enable-background="new 0 0 512 512" height="512" viewBox="0 0 512 512" width="512" xmlns="http://www.w3.org/2000/svg"><path d="m486.501 280.084h-40.782c-2.346 10.44-5.673 20.506-9.874 30.104h38.41c9.941 0 17.999-8.058 17.999-17.999v-.74c0-4.349-1.542-8.338-4.11-11.449-.542.05-1.088.084-1.643.084z" fill="#d8ecfe"/><path d="m486.501 243.346h-36.715c0 12.624-1.411 24.916-4.067 36.738h40.782c9.941 0 17.999-8.059 17.999-17.999v-.74c0-9.94-8.058-17.999-17.999-17.999z" fill="#c4e2ff"/><path d="m420.352 243.346c0 .085.011.167.01.252-.12 8.897-7.434 16.138-16.358 16.138h-13.126c5.758 2.842 9.643 8.957 9.132 15.887-.635 8.618-8.112 15.14-16.754 15.14h-12.686c5.418 2.674 9.177 8.246 9.177 14.667 0 8.998-7.362 16.359-16.359 16.359l-79.511-.027c-45.806-1.021-83.58-34.545-91.202-78.416h-19.411c-2.761 0-5-2.239-5-5v-176.264c0 27.878-22.599 50.477-50.477 50.477-.542 0-1.078-.024-1.616-.041l-.1 130.827c0 92.153 74.705 166.858 166.858 166.858s166.858-74.705 166.858-166.858h-29.435z" fill="#eaf6ff"/><path d="m136.07 243.346.103-134.256c-5.699 2.231-11.897 3.469-18.387 3.469-.542 0-1.078-.024-1.616-.041l-.1 130.827c0 92.153 74.705 166.858 166.858 166.858 3.359 0 6.691-.111 10-.307-87.496-5.172-156.858-77.755-156.858-166.55z" fill="#d8ecfe"/><path d="m403.563 227.018h-201.717c-5.967 0-10.636 5.196-9.943 11.122 5.425 46.402 44.37 82.561 91.974 83.622l79.511.027c8.998 0 16.359-7.362 16.359-16.359 0-6.421-3.759-11.993-9.177-14.667h12.686c8.642 0 16.119-6.521 16.754-15.14.511-6.93-3.374-13.045-9.132-15.887h13.126c8.924 0 16.238-7.241 16.358-16.138.122-9.119-7.679-16.58-16.799-16.58z" fill="#c4e2ff"/><path d="m221.904 238.335c-.705-6.03 4.047-11.317 10.117-11.317h-30.175c-5.967 0-10.636 5.196-9.943 11.122 5.424 46.402 44.37 82.562 91.974 83.622l15.936.005c-41.087-7.699-72.999-41.43-77.909-83.432z" fill="#b3dafe"/><path d="m67.309 62.083c0-6.245 1.141-12.22 3.215-17.74h-45.025c-9.941 0-17.999 8.059-17.999 17.999v.74c0 9.941 8.058 17.999 17.999 17.999h45.52c-2.385-5.867-3.71-12.276-3.71-18.998z" fill="#fe860a"/><path d="m27.5 63.081v-.74c0-9.941 8.058-17.999 17.999-17.999h-20c-9.941 0-17.999 8.059-17.999 17.999v.74c0 9.941 8.058 17.999 17.999 17.999h20c-9.941 0-17.999-8.059-17.999-17.999z" fill="#fe7701"/><circle cx="117.786" cy="62.082" fill="#d8ecfe" r="50.477"/><path d="m131.786 96.955c-27.878 0-50.477-22.6-50.477-50.478 0-9.167 2.456-17.756 6.728-25.165-12.562 9.182-20.728 24.019-20.728 40.771 0 27.878 22.599 50.477 50.477 50.477 18.711 0 35.031-10.188 43.75-25.312-8.344 6.099-18.623 9.707-29.75 9.707z" fill="#c4e2ff"/><path d="m268.15 490.395v-4.493c0-3.742 2.059-6.999 5.103-8.714-1.448-.816-3.117-1.286-4.897-1.286h-59.602c-5.523 0-10 4.477-10 10v4.493c0 5.523 4.477 10 10 10h59.602c1.781 0 3.449-.471 4.897-1.286-3.044-1.715-5.103-4.972-5.103-8.714z" fill="#fe860a"/><path d="m218.753 490.395v-4.493c0-5.523 4.477-10 10-10h-20c-5.523 0-10 4.477-10 10v4.493c0 5.523 4.477 10 10 10h20c-5.522 0-10-4.477-10-10z" fill="#fe7701"/><path d="m337.753 500.395h-59.603c-5.523 0-10-4.477-10-10v-4.493c0-5.523 4.477-10 10-10h59.602c5.523 0 10 4.477 10 10v4.493c.001 5.523-4.476 10-9.999 10z" fill="#fe860a"/><path d="m288.15 490.395v-4.493c0-5.523 4.477-10 10-10h-20c-5.523 0-10 4.477-10 10v4.493c0 5.523 4.477 10 10 10h20c-5.523 0-10-4.477-10-10z" fill="#fe7701"/><path d="m486.501 235.847h-36.706c-.003 0-.006 0-.01 0h-23.181c-1.142-3.324-3.041-6.395-5.617-9.006-4.591-4.653-10.942-7.322-17.425-7.322h-49.229c-4.142 0-7.5 3.358-7.5 7.5s3.358 7.5 7.5 7.5h49.229c2.496 0 4.956 1.042 6.747 2.857 1.676 1.699 2.583 3.874 2.553 6.123-.064 4.818-4.038 8.738-8.858 8.738h-13.126c-3.486 0-6.512 2.401-7.304 5.796s.859 6.887 3.985 8.43c3.286 1.622 5.237 5.001 4.972 8.61-.339 4.593-4.413 8.191-9.274 8.191h-12.687c-3.486 0-6.512 2.401-7.304 5.796s.859 6.888 3.985 8.43c3.035 1.498 4.996 4.615 4.996 7.941 0 4.885-3.974 8.859-8.857 8.859l-79.426-.027c-43.229-1.003-79.597-34.089-84.612-76.993-.11-.939.333-1.596.607-1.903.282-.317.902-.848 1.887-.848h117.154c4.142 0 7.5-3.358 7.5-7.5s-3.358-7.5-7.5-7.5h-117.154c-4.997 0-9.769 2.142-13.092 5.876-2.6 2.921-4.105 6.613-4.36 10.452h-8.63v-74.847c0-4.142-3.358-7.5-7.5-7.5s-7.5 3.358-7.5 7.5v77.346c0 6.893 5.607 12.5 12.5 12.5h13.314c4.724 19.741 15.267 37.767 30.432 51.641 18.268 16.713 41.956 26.222 66.7 26.773.055.001.109.002.165.002l79.514.027c13.156 0 23.859-10.703 23.859-23.859 0-2.539-.396-5.006-1.145-7.332 11.389-1.323 20.544-10.478 21.387-21.924.231-3.132-.153-6.198-1.073-9.061 9.436-.963 17.301-7.513 20.218-16.268h15.481c-1.527 33.559-13.309 65.054-34.307 91.504-2.576 3.244-2.033 7.961 1.211 10.537 1.379 1.095 3.024 1.626 4.658 1.626 2.209 0 4.398-.972 5.879-2.837 8.445-10.637 15.526-22.021 21.19-33.987h33.508c14.06 0 25.499-11.439 25.499-25.5v-.739c0-2.434-.354-4.784-.995-7.014 7.885-4.342 13.241-12.732 13.241-22.351v-.739c0-14.059-11.439-25.498-25.499-25.498zm-1.747 56.342c0 5.79-4.71 10.5-10.499 10.5h-27.269c1.793-4.957 3.359-9.994 4.689-15.105h32.332c.477 1.198.747 2.5.747 3.866zm12.246-30.104c0 5.789-4.71 10.499-10.499 10.499h-31.624c1.193-7.139 1.947-14.394 2.253-21.737h29.371c5.789 0 10.499 4.71 10.499 10.499z"/><path d="m384.146 366.438c-28.406 23.387-64.353 36.267-101.218 36.267-87.87 0-159.358-71.488-159.358-159.352l.095-123.589c14.658-1.483 27.72-8.45 37.099-18.81v24.713c0 4.142 3.358 7.5 7.5 7.5s7.5-3.358 7.5-7.5v-63.584c0-31.969-26.009-57.978-57.978-57.978-22.927 0-42.785 13.379-52.186 32.737h-40.101c-14.06 0-25.499 11.439-25.499 25.499v.739c0 14.061 11.439 25.5 25.499 25.5h40.745c8.306 16.09 23.913 27.819 42.42 30.756l-.095 124.01c0 83.228 58.621 153.011 136.739 170.258v54.797h-36.556c-9.649 0-17.5 7.851-17.5 17.5v4.493c0 9.649 7.851 17.5 17.5 17.5h129c9.649 0 17.5-7.851 17.5-17.5v-4.493c0-9.649-7.851-17.5-17.5-17.5h-1.924v-58.943c20.985-6.682 40.678-17.303 57.851-31.442 3.198-2.633 3.656-7.359 1.023-10.557-2.632-3.196-7.358-3.655-10.556-1.021zm-358.647-292.858c-5.789 0-10.499-4.71-10.499-10.499v-.739c0-5.789 4.71-10.499 10.499-10.499h35.234c-.596 3.327-.924 6.745-.924 10.24 0 3.936.398 7.78 1.149 11.498h-35.459zm49.31-11.497c0-23.698 19.28-42.978 42.978-42.978s42.978 19.28 42.978 42.978-19.28 42.978-42.978 42.978-42.978-19.281-42.978-42.978zm185.5 354.156c7.406.964 14.955 1.466 22.619 1.466 12.813 0 25.523-1.427 37.901-4.189v54.886h-60.52zm.541 76.656h-52.097c-1.378 0-2.5-1.122-2.5-2.5v-4.493c0-1.378 1.122-2.5 2.5-2.5h52.097c-.118.819-.2 1.649-.2 2.5v4.493c0 .851.082 1.681.2 2.5zm76.903-9.493c1.378 0 2.5 1.122 2.5 2.5v4.493c0 1.378-1.122 2.5-2.5 2.5h-59.603c-1.378 0-2.5-1.122-2.5-2.5v-4.493c0-1.378 1.122-2.5 2.5-2.5z"/><path d="m102.193 41.666c-4.142 0-7.5 3.358-7.5 7.5v10.799c0 4.142 3.358 7.5 7.5 7.5s7.5-3.358 7.5-7.5v-10.799c0-4.142-3.358-7.5-7.5-7.5z"/></svg>