<svg id="Layer_1" enable-background="new 0 0 512 512" height="512" viewBox="0 0 512 512" width="512" xmlns="http://www.w3.org/2000/svg"><g><g><path d="m373.286 277.17c0 36.648-12.758 69.87-33.452 94.139-9.844 11.545-15.203 26.246-15.203 41.418v93.273c0 3.314-2.686 6-6 6h-18.905c-3.314 0-6-2.686-6-6v-88.024c0-6.358-5.997-10.963-12.157-9.391-8.23 2.101-1.715 44.417-25.568 44.417s-17.337-42.316-25.568-44.417c-6.16-1.573-12.157 3.033-12.157 9.391v88.024c0 3.314-2.686 6-6 6h-18.905c-3.314 0-6-2.686-6-6v-93.273c0-15.172-5.359-29.873-15.203-41.418-20.694-24.269-33.452-57.491-33.452-94.139 0-74.348 52.508-134.614 117.286-134.614s117.284 60.266 117.284 134.614z" fill="#c4573a"/></g><g><path d="m256 142.556c-5.239 0-10.396.4-15.453 1.164 57.473 8.682 101.833 65.114 101.833 133.45 0 36.648-12.758 69.87-33.452 94.139-9.844 11.545-15.203 26.246-15.203 41.418v93.273c0 3.314 2.686 6 6 6h18.905c3.314 0 6-2.686 6-6v-93.273c0-15.172 5.359-29.873 15.203-41.418 20.694-24.269 33.452-57.491 33.452-94.139.001-74.348-52.507-134.614-117.285-134.614z" fill="#a74b30"/></g><g fill="#d6694b"><path d="m235.935 130.391s-20.019-36.912-46.747-42.506c-1.193-.25-2.411.327-2.646 1.23-1.842 7.09-6.552 35.93 32.405 53.437z"/><path d="m276.065 130.391s20.019-36.912 46.747-42.506c1.193-.25 2.411.327 2.646 1.23 1.842 7.09 6.552 35.93-32.405 53.437z"/></g><g fill="#e49280"><path d="m107.166 117.813c-17.848-6.124-28.951-31.4-39.366-100.126-.679-4.484-4.85-7.587-9.339-6.941-3.827.55-6.76 3.674-7.057 7.529-1.354 17.596-3.974 67.013 5.176 106.814z"/><path d="m151.829 119.644c-16.552-5.679-26.849-29.119-36.507-92.854-.63-4.158-4.498-7.036-8.661-6.437-3.549.51-6.269 3.408-6.544 6.983-1.256 16.318-3.686 62.146 4.8 99.056z"/><path d="m404.834 117.813c17.848-6.124 28.951-31.399 39.366-100.126.679-4.484 4.85-7.587 9.339-6.941 3.827.55 6.76 3.674 7.057 7.529 1.354 17.596 3.974 67.013-5.176 106.814z"/><path d="m360.171 119.644c16.552-5.679 26.849-29.119 36.507-92.854.63-4.158 4.498-7.036 8.661-6.437 3.549.51 6.269 3.408 6.544 6.983 1.255 16.318 3.686 62.146-4.8 99.056z"/></g><path d="m219.627 149.315s-6.733-44.551-85.427-39.764c-77.219 4.698-106.036 38.422-107.089-101.351-.035-4.535-3.721-8.2-8.256-8.2-3.866 0-7.214 2.675-8.057 6.448-7.263 32.536-35.179 176.823 43.049 168.891 88.133-8.937 130.921-44.543 151.567-24.795l15.559-1.229z" fill="#eaa998"/><path d="m292.373 149.315s6.733-44.551 85.427-39.764c77.219 4.698 106.037 38.422 107.09-101.351.034-4.535 3.721-8.2 8.256-8.2 3.866 0 7.214 2.675 8.057 6.448 7.264 32.536 35.179 176.823-43.048 168.891-88.133-8.937-130.921-44.543-151.567-24.795l-15.559-1.229z" fill="#eaa998"/><g><path d="m501.202 6.448c-.843-3.773-4.191-6.448-8.057-6.448-4.535 0-8.221 3.665-8.256 8.2-.047 6.208-.15 12.067-.307 17.608 6.031 45.75 8.829 134.704-38.456 148.116 3.912.524 7.92.999 12.027 1.415 78.228 7.932 50.312-136.355 43.049-168.891z" fill="#e49280"/></g><path d="m327.433 196.823c0 68.179-28.464 28.272-28.464 122.843 0 32.76-42.969 28.091-42.969 28.091s-42.969 4.669-42.969-28.091c0-94.571-28.464-54.664-28.464-122.843 0-74.747 60.713-74.747 71.433-74.747s71.433 0 71.433 74.747z" fill="#dd7f66"/><path d="m256 122.076c-2.651 0-8.361.002-15.453 1.132 21.584 3.441 55.98 17.352 55.98 73.614 0 68.179-28.464 28.272-28.464 122.843 0 19.483-15.197 25.728-27.516 27.589 8.395 1.269 15.453.502 15.453.502s42.969 4.669 42.969-28.091c0-94.571 28.464-54.664 28.464-122.843 0-74.746-60.714-74.746-71.433-74.746z" fill="#d6694b"/><g fill="#8c3d27"><path d="m230.366 214.959c2.63-3.2 2.169-7.926-1.031-10.556l-14.396-11.834c-3.2-2.631-7.926-2.168-10.556 1.031-2.63 3.2-2.169 7.926 1.031 10.556l14.396 11.834c1.396 1.148 3.082 1.707 4.758 1.707 2.166 0 4.315-.934 5.798-2.738z"/><path d="m307.617 193.6c-2.63-3.2-7.357-3.662-10.556-1.031l-14.396 11.834c-3.2 2.63-3.661 7.356-1.031 10.556 1.483 1.804 3.631 2.737 5.798 2.737 1.676 0 3.363-.559 4.758-1.707l14.396-11.834c3.2-2.629 3.661-7.355 1.031-10.555z"/><path d="m244.812 301.161-8.046-1.902c-4.032-.954-8.072 1.542-9.024 5.574-.953 4.031 1.542 8.071 5.574 9.024l8.046 1.902c.58.137 1.16.203 1.731.203 3.398 0 6.477-2.325 7.292-5.776.954-4.032-1.541-8.072-5.573-9.025z"/><path d="m275.234 299.259-8.046 1.902c-4.031.953-6.526 4.993-5.574 9.024.815 3.451 3.894 5.776 7.292 5.776.571 0 1.151-.065 1.731-.203l8.046-1.902c4.031-.953 6.526-4.993 5.574-9.024s-4.996-6.526-9.023-5.573z"/></g></g></svg>