<svg id="Layer_1" enable-background="new 0 0 512 512" height="512" viewBox="0 0 512 512" width="512" xmlns="http://www.w3.org/2000/svg"><g><g fill="#a79ba7"><path d="m301.786 129.251s55.943-51.884 155.315 8.067c0 0-12.501 21.764-29.77 23.667-17.269 1.902-26.851 44.133-26.851 44.133z"/><path d="m428.425 239.988s40.311-6.292 66.577 50.092c0 0-12.039 5.923-20.276 1.596-8.237-4.326-25.08 11.561-25.08 11.561z"/><path d="m279.66 243.37s-1.332 29.965 38.618 54.744c0 0 12.254-16.135 31.226-26.606z"/></g><path d="m460.437 406.674s-6.33-9.033 0-67.998-53.442-225.539-251.221-240.256c-103.321-7.689-94.018 99.859-63.366 112.1 53.85 21.505 165.163 40.263 205.889 71.191s59.795 82.737 71.138 107.956c11.342 25.219 37.56 17.007 37.56 17.007z" fill="#cbc4cc"/><path d="m209.216 98.42c-9.132-.68-17.367-.443-24.802.533 192.889 17.662 251.382 181.373 245.118 239.724-3.444 32.086-3.14 49.384-2.147 58.49 12.59 15.902 33.052 9.508 33.052 9.508s-6.33-9.033 0-67.998-53.442-225.54-251.221-240.257z" fill="#b5adb6"/><path d="m0 351.116c0-2.156 1.666-3.918 3.814-4.108 21.859-1.935 23.128-20.44 47.392-20.44 25.603 0 25.603 20.604 51.206 20.604 25.599 0 25.599-20.604 51.199-20.604s25.6 20.604 51.2 20.604c25.599 0 25.599-20.604 51.198-20.604 25.598 0 25.598 20.604 51.197 20.604 25.6 0 25.6-20.604 51.2-20.604 25.599 0 25.599 20.604 51.198 20.604 25.6 0 25.6-20.604 51.199-20.604 24.26 0 25.529 18.505 47.384 20.44 2.148.19 3.814 1.952 3.814 4.108v45.504c0 12.517-10.147 22.664-22.664 22.664h-466.673c-12.517 0-22.664-10.147-22.664-22.664z" fill="#5f99d7"/><g fill="#3c87d0"><path d="m378.697 347.171c6.538 0 11.402-1.348 15.453-3.35-11.811-5.835-16.684-17.254-35.745-17.254-6.538 0-11.401 1.348-15.453 3.35 11.811 5.835 16.684 17.254 35.745 17.254z"/><path d="m276.299 347.171c6.538 0 11.402-1.348 15.453-3.35-11.811-5.835-16.684-17.254-35.745-17.254-6.538 0-11.401 1.348-15.453 3.35 11.811 5.835 16.685 17.254 35.745 17.254z"/><path d="m173.904 347.171c6.538 0 11.401-1.348 15.452-3.35-11.812-5.835-16.685-17.254-35.747-17.254-6.538 0-11.401 1.348-15.452 3.349 11.812 5.836 16.686 17.255 35.747 17.255z"/><path d="m508.186 347.008c-21.855-1.936-23.124-20.44-47.384-20.44-6.54 0-11.404 1.349-15.457 3.351 7.364 3.638 12.033 9.445 19.124 13.303 10.361 5.637 16.626 16.679 16.626 28.475v24.923c0 12.517-10.147 22.664-22.664 22.664h30.905c12.517 0 22.664-10.147 22.664-22.664v-45.504c0-2.156-1.666-3.918-3.814-4.108z"/><path d="m71.506 347.171c6.537 0 11.4-1.348 15.452-3.349-11.814-5.835-16.688-17.255-35.752-17.255-6.537 0-11.398 1.35-15.449 3.35 11.811 5.836 16.686 17.254 35.749 17.254z"/></g><g fill="#d4f2f6"><path d="m66.508 374.836h-10.302c-4.142 0-7.5 3.358-7.5 7.5s3.358 7.5 7.5 7.5h10.302c4.142 0 7.5-3.358 7.5-7.5s-3.358-7.5-7.5-7.5z"/><path d="m464.46 364.291h-10.302c-4.142 0-7.5 3.358-7.5 7.5s3.358 7.5 7.5 7.5h10.302c4.142 0 7.5-3.358 7.5-7.5s-3.358-7.5-7.5-7.5z"/><path d="m163.757 359.137h-10.302c-4.142 0-7.5 3.358-7.5 7.5s3.358 7.5 7.5 7.5h10.302c4.142 0 7.5-3.358 7.5-7.5s-3.358-7.5-7.5-7.5z"/></g><path d="m206.708 97.898c-1.317-1.23-2.977-2-4.765-2.216-11.636-1.407-57.985-6.304-88.736.756-35.397 8.127-44.787 6.896-58.585 18.998-11.626 10.197-.577 21.531 5.941 19.897 30.279-7.59 44.843 10.666 57.491 24.615 12.648 13.948-28.362 7.384-37.561 4.102s-8.049 15.179 1.15 20.102 58.99 36.037 71.847 34.223 68.815-23.967 84.913-68.274c5.739-15.794-23.572-44.616-31.695-52.203z" fill="#b5adb6"/><g><path d="m201.928 95.68c-4.385-.53-13.672-1.552-25.187-2.246 13.43 15.567 35.437 43.783 30.756 56.668-12.456 34.284-48.774 55.3-70.527 63.896 7.134 3.033 13.119 4.858 16.519 4.378 12.857-1.814 68.815-23.967 84.913-68.274 5.739-15.795-23.572-44.617-31.695-52.204-1.318-1.232-2.988-2.002-4.779-2.218z" fill="#a79ba7"/></g><path d="m174.855 124.973c-.524-4.108-4.278-7.012-8.389-6.491l-4.042.516c-4.109.524-7.015 4.28-6.491 8.389.483 3.787 3.711 6.552 7.431 6.552.316 0 .636-.02.958-.061l4.042-.516c4.109-.525 7.015-4.28 6.491-8.389z" fill="#685e68"/></g></svg>