<svg id="Layer_1" enable-background="new 0 0 511.472 511.472" height="512" viewBox="0 0 511.472 511.472" width="512" xmlns="http://www.w3.org/2000/svg"><g><g><g><path d="m63.312 97.98s25.916 22.773-15.401 60.443c-24.595 22.425-11.832 61.944 16.128 61.591h61.319v-127.301z" fill="#d82e3d"/><g><g><path d="m387.48 249.483 67.991-28.269c24.915-10.541 35.971-39.831 24.185-64.199-.06-.125-.12-.248-.18-.369-13.05-26.613-48.876-31.506-68.493-9.294l-56.193 64.098z" fill="#fecf8a"/><path d="m340.313 403.258 25.419 31.515c7.956 9.841 21.894 12.486 32.852 6.162.158-.091.315-.182.473-.274 14.299-8.303 17.346-27.655 6.161-39.839l-32.738-35.34z" fill="#fecf8a"/><g fill="#fedca9"><path d="m354.79 211.449 68.651-78.202c14.838-16.802 14.736-41.75-.042-58.219-.038-.043-.075-.084-.11-.122-15.499-17.178-43.408-13.397-53.794 7.283l-56.765 108.182z"/><path d="m372.48 365.483 30.663 33.08c13.181 14.358 34.625 14.242 47.498-.394.231-.262.461-.526.691-.789 14.52-16.674 7.785-42.785-12.843-50.719l-42.758-16.678z"/><path d="m399.23 290.721 72.637-3.502c18.486-.991 32.965-16.429 32.607-34.954-.006-.294-.012-.587-.019-.881-.571-24.2-25.565-40.078-47.842-30.654l-69.133 28.752z"/></g><path d="m395.73 329.983 52.984 20.611c16.567 6.372 35.321-1.769 41.654-18.364.097-.253.193-.506.288-.759 8.215-21.768-8.798-44.787-32.013-43.543l-59.413 2.793z" fill="#fecf8a"/></g><path d="m125.358 92.713-59.608-58.096c-5.525 5.53-42.486 44.131-58.27 70.575l55.832-7.212z" fill="#ffd508"/><g><g><path d="m162.145 392.595 20.933 69.119 25.707.082 19.592-50.269z" fill="#7c3f2c"/><path d="m158.74 212.802s52.498-59.187 159.552-28.658c29.282 8.35 55.055 31.735 67.337 49.921 21.21 31.407 26.786 70.677 16.939 107.282-22.258 82.736-106.456 77.901-106.456 77.901l-22.719 42.236h-27.031s-10.193-27.975-53.538-43.751c-197.041-71.715-119.868-204.34-111.337-226.292 6.28-16.157 46.771-70.695 9.028-79.038-26.117-5.772-45.185-27.513-37.473-54.604 7.488-26.305 38.102-52.73 72.472-49.454 43.234 4.121 60.733 36.06 46.836 124.96-5.204 33.294-1.121 50.839 20.636 56.085" fill="#934d36"/></g></g><path d="m390.147 241.299s-71.855 98.745-170.689 93.715c-82.275-4.188-101.145-83.948-60.718-122.212 15.012-14.209 36.573-38.736 111.24-37.359 85.968 1.585 120.167 65.856 120.167 65.856z" fill="#c85929"/><path d="m269.98 175.443c-7.738-.143-14.898-.003-21.547.37 79.761 5.45 111.714 65.486 111.714 65.486s-61.145 84.023-148.207 93.105c2.444.274 4.95.479 7.518.61 98.834 5.031 170.689-93.715 170.689-93.715s-34.199-64.271-120.167-65.856z" fill="#ac4d24"/></g></g></g><g fill="#060606"><path d="m487.469 291.012c35.543-16.078 30.413-70.054-7.458-79.296 27.084-34.266 3.165-90.317-42.885-85.644 9.847-20.746 4.386-48.084-14.614-61.764-19.895-14.324-48.665-7.5-59.72 14.514l-48.452 96.479c-40.009-10.374-83.688-10.763-122 6.15-25.012-7.506-11.956-48.831-9.968-66.093 1.073-9.325-13.781-11.461-14.902-1.715-2.664 23.148-13.576 58.799 8.782 76.142-34.103 20.527-56.088 58.268-41.316 98.183 11.87 32.07 43.324 52.458 84.141 54.535 26.43 1.347 52.771-4.546 76.834-15.332 8.564-3.839 2.82-17.697-6.137-13.688-23.394 10.487-46.926 15.207-69.936 14.039-29.598-1.507-59.944-15.339-70.835-44.762-15.406-41.629 17.512-74.676 53.013-89.127 22.968-9.349 61.429-17.333 114.22-2.278 25.94 7.397 50.37 26.773 64.825 49.42-7.045 8.781-26.07 30.912-53.385 50.603-7.565 5.452.713 17.977 8.771 12.168 24.802-17.88 42.909-37.37 52.356-48.557 11.818 25.78 14.265 55.628 6.522 84.407-11.74 43.636-52.564 75.312-98.783 72.362-2.903-.168-5.654 1.366-7.035 3.935l-20.595 38.289h-17.845c-16.058-29.272-52.034-44.738-82.341-54.128-47.833-21.652-79.12-49.353-93.147-82.573-20.517-48.587.879-96.161 10.015-116.477 2.958-6.577 5.9-12.939 9.382-19.271 10.36-18.841 24.55-44.646 16.607-62.184-3.33-7.354-9.874-12.155-19.448-14.271-14.007-3.096-27.788-12.202-31.955-26.543-4.596-15.816 4.05-27.386 11.923-39.946 12.349-14.364 31.867-24.768 52.699-22.781 20.804 1.983 42.363 10.342 44.539 57.302.433 9.354 15.438 9.117 14.984-.693-1.072-23.144-6.429-40.138-16.375-51.954-9.613-11.419-23.262-17.826-41.725-19.586-25.16-2.406-50.052 9.688-66.093 28.753-3.853 3.942-42.352 43.666-59.094 71.715-3.152 5.28 1.309 12.063 7.401 11.282l51.803-6.691c11.227 16.599-5.741 36.325-17.385 46.942-14.543 13.259-19.426 33.26-12.441 50.954 5.21 13.198 16.061 21.818 28.96 23.395-7.714 25.72-12.516 60.603 2.384 95.888 15.312 36.261 48.413 66.25 98.581 89.4l15.558 51.37c1.512 4.994 6.928 5.819 11.323 5.339l-4.135 26.669h-36.221c-9.386 0-9.813 15 0 15h121.465c9.386 0 9.813-15 0-15h-5.966l4.531-26.912c4.315.462 10.732.458 13.102-3.947l20.575-38.252c7.885-.15 24.318-1.396 42.421-8.208 11.335 14.021 22.377 33.329 42.733 33.329 19.095 0 34.936-16.831 33.701-35.877 30.906 5.966 56.579-27.387 43.555-55.848 34.156-2.272 49.578-45.836 24.486-69.166zm-443.653-221.357c-.029 7.914 1.918 15.53 5.804 22.531l-26.695 3.448c6.259-8.552 13.699-17.632 20.891-25.979zm20.129 142.86c-8.719.128-16.025-5.193-19.575-14.188-3.552-8.998-3.432-23.396 8.596-34.362 17.304-15.777 26.008-31.435 25.869-46.536-.005-.487 16.968 3.437 19.085 8.111 4.846 10.7-8.771 35.464-16.087 48.768-1.918 3.487-16.037 38.168-17.888 38.207zm114.409 207.728c3.882 1.548 7.848 3.062 11.905 4.539 8.255 3.004 15.181 6.449 20.996 10.021l-7.59 19.476-15.016-.047zm68.802 75.654h-27.699-13.592-7.598l4.128-26.622 6.366.02h.023c3.091 0 5.865-1.896 6.988-4.776l7.996-20.517c11.66 10.293 15.322 19.462 15.547 20.05 1.079 2.962 3.895 4.933 7.047 4.933h5.325zm249.8-244.338c.432 14.629-10.669 27.376-25.491 28.171l-58.592 3.141c-1.817-10.878-4.928-21.476-9.295-31.559l24.714-10.457 30.1-12.735c17.307-7.691 38.102 3.873 38.564 23.439zm-120.759-166.004c18.278-34.156 70.922 9.552 41.813 42.511l-59.887 67.808c-8.94-6.463-18.836-12.104-29.246-16.092zm-6.359 119.712 46.766-52.951c38.013-43.037 91.437 38.465 35.973 61.978l-55.745 23.585c-.078-.135-.156-.271-.234-.406-.012-.021-.024-.043-.037-.063-1.487-2.559-3.051-5.078-4.715-7.542-5.379-7.965-12.94-16.57-22.008-24.601zm34.454 215.716c-2.336 15.353-22.771 21.388-32.728 9.075l-14.467-17.895c9.468-5.123 19.281-12.223 28.095-22.063l14.5 15.795c3.761 4.095 5.436 9.594 4.6 15.088zm41.382-28.527c-9.82 11.458-26.677 12.288-37.006 1.035l-14.193-15.461c6.238-9.459 11.542-20.794 15.239-34.4l26.086 10.033c15.362 5.912 20.816 26.227 9.874 38.793zm37.968-63.639c-4.915 12.785-19.221 19.784-32.235 14.777l-10.222-3.932c-.002-.001-.003-.001-.005-.002l-28.253-10.867c1.681-10.353 2.207-20.745 1.618-30.991l44.5-2.385c17.454-.953 30.783 17.008 24.597 33.4z"/><path d="m93.557 50.608c-2.932 2.926-2.936 7.675-.009 10.606 2.926 2.932 7.675 2.937 10.606.009 3.217-3.211 8.451-3.212 11.67.001 1.464 1.461 3.381 2.191 5.298 2.191 1.922 0 3.844-.734 5.309-2.202 2.926-2.932 2.921-7.68-.011-10.606-9.06-9.043-23.802-9.046-32.863.001z"/></g></g></svg>